<svg xmlns="http://www.w3.org/2000/svg" enable-background="new 0 0 100 100" viewBox="0 0 100 100"><path d="M87.4 7.4c.3 0 .6-.3.6-.6V4.2c0-.3-.3-.6-.6-.6s-.6.3-.6.6v2.5C86.8 7.1 87.1 7.4 87.4 7.4zM84.6 7.6C84.8 7.9 85 8 85.2 8c.1 0 .2 0 .3-.1.3-.2.4-.6.2-.9l-1.2-2.2c-.2-.3-.6-.4-.9-.2-.3.2-.4.6-.2.9L84.6 7.6zM81.1 8.3l2.2 1.2c.1.1.2.1.3.1.2 0 .4-.1.5-.3.2-.3.1-.7-.2-.9l-2.2-1.2C81.4 7 81 7.1 80.8 7.4 80.7 7.7 80.8 8.1 81.1 8.3zM80.4 11.9h2.5c.3 0 .6-.3.6-.6s-.3-.6-.6-.6h-2.5c-.3 0-.6.3-.6.6S80.1 11.9 80.4 11.9zM84.1 13.2c-.2-.3-.6-.4-.9-.2l-2.2 1.2c-.3.2-.4.6-.2.9.1.2.3.3.5.3.1 0 .2 0 .3-.1l2.2-1.2C84.2 13.9 84.3 13.5 84.1 13.2zM83.6 17.8c.1.1.2.1.3.1.2 0 .4-.1.5-.3l1.2-2.2c.2-.3.1-.7-.2-.9-.3-.2-.7-.1-.9.2L83.4 17C83.2 17.3 83.3 17.7 83.6 17.8zM86.8 15.8v2.5c0 .3.3.6.6.6s.6-.3.6-.6v-2.5c0-.3-.3-.6-.6-.6S86.8 15.4 86.8 15.8zM89.4 14.6c-.3.2-.4.6-.2.9l1.2 2.2c.1.2.3.3.5.3.1 0 .2 0 .3-.1.3-.2.4-.6.2-.9l-1.2-2.2C90.1 14.5 89.7 14.4 89.4 14.6zM93.2 15.3c.1.1.2.1.3.1.2 0 .4-.1.5-.3.2-.3.1-.7-.2-.9L91.7 13c-.3-.2-.7-.1-.9.2-.2.3-.1.7.2.9L93.2 15.3zM91.3 11.2c0 .3.3.6.6.6h2.5c.3 0 .6-.3.6-.6s-.3-.6-.6-.6H92C91.6 10.6 91.3 10.9 91.3 11.2zM90.8 9.3c.1.2.3.3.5.3.1 0 .2 0 .3-.1l2.2-1.2c.3-.2.4-.6.2-.9-.2-.3-.6-.4-.9-.2L91 8.4C90.7 8.6 90.6 9 90.8 9.3zM89.4 7.9C89.5 7.9 89.6 8 89.7 8c.2 0 .4-.1.5-.3l1.2-2.2c.2-.3.1-.7-.2-.9-.3-.2-.7-.1-.9.2L89.2 7C89 7.3 89.1 7.7 89.4 7.9zM90.1 11.2c0-1.5-1.2-2.7-2.7-2.7s-2.7 1.2-2.7 2.7c0 1.5 1.2 2.7 2.7 2.7S90.1 12.7 90.1 11.2zM87.4 12.7c-.8 0-1.4-.6-1.4-1.4 0-.8.6-1.4 1.4-1.4.8 0 1.4.6 1.4 1.4C88.9 12 88.2 12.7 87.4 12.7zM72.8 26.2c1.7 0 3-1.4 3-3 0-1.7-1.4-3-3-3s-3 1.4-3 3C69.7 24.9 71.1 26.2 72.8 26.2zM72.8 21.6c.9 0 1.6.7 1.6 1.6 0 .9-.7 1.6-1.6 1.6-.9 0-1.6-.7-1.6-1.6C71.1 22.3 71.9 21.6 72.8 21.6zM80.8 88c-1.7 0-3 1.4-3 3 0 1.7 1.4 3 3 3 1.7 0 3-1.4 3-3C83.8 89.4 82.4 88 80.8 88zM80.8 92.6c-.9 0-1.6-.7-1.6-1.6 0-.9.7-1.6 1.6-1.6.9 0 1.6.7 1.6 1.6C82.4 91.9 81.6 92.6 80.8 92.6zM8.1 18.2c1.7 0 3-1.4 3-3 0-1.7-1.4-3-3-3s-3 1.4-3 3C5.1 16.8 6.4 18.2 8.1 18.2zM8.1 13.5c.9 0 1.6.7 1.6 1.6 0 .9-.7 1.6-1.6 1.6-.9 0-1.6-.7-1.6-1.6C6.5 14.3 7.2 13.5 8.1 13.5zM42 7c.1.3.4.5.7.4.3-.1.5-.4.4-.7l-.4-1.2c-.1-.3-.4-.5-.7-.4s-.5.4-.4.7L42 7zM43 9.9l.4 1.2c.1.3.4.5.7.4.3-.1.5-.4.4-.7l-.4-1.2c-.1-.3-.4-.5-.7-.4C43 9.3 42.9 9.6 43 9.9zM44.7 8.3l1.2-.4c.3-.1.5-.4.4-.7-.1-.3-.4-.5-.7-.4l-1.2.4C44 7.3 43.9 7.6 44 7.9 44.1 8.2 44.4 8.4 44.7 8.3zM39.8 9.3c.1.3.4.5.7.4l1.2-.4c.3-.1.5-.4.4-.7-.1-.3-.4-.5-.7-.4l-1.2.4C39.8 8.7 39.7 9 39.8 9.3L39.8 9.3zM42.9 7.8c-.3.1-.4.4-.3.6.1.3.4.4.6.3.3-.1.4-.4.3-.6C43.4 7.8 43.1 7.7 42.9 7.8zM19.5 6.7C19.6 7 20 7.1 20.3 7c.3-.1.5-.4.4-.7l-.4-1.2c-.1-.3-.4-.5-.7-.4-.3.1-.5.4-.4.7L19.5 6.7zM20.5 9.6l.4 1.2c.1.3.4.5.7.4.3-.1.5-.4.4-.7l-.4-1.2c-.1-.3-.4-.5-.7-.4C20.6 9 20.4 9.3 20.5 9.6zM22.2 8l1.2-.4c.3-.1.5-.4.4-.7-.1-.3-.4-.5-.7-.4l-1.2.4c-.3.1-.5.4-.4.7C21.6 8 21.9 8.1 22.2 8zM17.3 9.1c.1.3.4.5.7.4L19.3 9c.3-.1.5-.4.4-.7-.1-.3-.4-.5-.7-.4l-1.2.4C17.4 8.4 17.2 8.7 17.3 9.1L17.3 9.1zM20.4 7.5c-.3.1-.4.4-.3.6.1.3.4.4.6.3s.4-.4.3-.6C21 7.5 20.7 7.4 20.4 7.5zM92.6 32.8l.4-1.2c.1-.3 0-.6-.4-.7-.3-.1-.6 0-.7.4l-.4 1.2c-.1.3 0 .6.4.7C92.2 33.3 92.5 33.1 92.6 32.8zM90.4 37.3c.3.1.6 0 .7-.4l.4-1.2c.1-.3 0-.6-.4-.7-.3-.1-.6 0-.7.4l-.4 1.2C90 36.9 90.1 37.2 90.4 37.3zM92.8 35.2l1.2.4c.3.1.6 0 .7-.4.1-.3 0-.6-.4-.7l-1.2-.4c-.3-.1-.6 0-.7.4C92.4 34.7 92.5 35.1 92.8 35.2zM88.7 33.7l1.2.4c.3.1.6 0 .7-.4.1-.3 0-.6-.4-.7l-1.2-.4c-.3-.1-.6 0-.7.4C88.2 33.2 88.4 33.6 88.7 33.7zM92 34.3c.1-.3 0-.6-.3-.6-.3-.1-.6 0-.6.3-.1.3 0 .6.3.6C91.7 34.7 92 34.5 92 34.3zM20.9 91.4l.4-1.2c.1-.3 0-.6-.4-.7-.3-.1-.6 0-.7.4L19.9 91c-.1.3 0 .6.4.7C20.5 91.8 20.8 91.7 20.9 91.4zM19.6 93.6c-.3-.1-.6 0-.7.4l-.4 1.2c-.1.3 0 .6.4.7.3.1.6 0 .7-.4l.4-1.2C20 94 19.9 93.7 19.6 93.6zM22.8 93.1l-1.2-.4c-.3-.1-.6 0-.7.4-.1.3 0 .6.4.7l1.2.4c.3.1.6 0 .7-.4C23.2 93.5 23.1 93.2 22.8 93.1zM19 92.3c.1-.3 0-.6-.4-.7l-1.2-.4c-.3-.1-.6 0-.7.4s0 .6.4.7l1.2.4C18.5 92.8 18.9 92.6 19 92.3zM20 92.2c-.3-.1-.6 0-.6.3-.1.3 0 .6.3.6.3.1.6 0 .6-.3C20.4 92.6 20.3 92.3 20 92.2zM27.8 16.8c.1.2.1.4 0 .6l-1.1 2.1c-.3.5.2 1.1.7 1l2.3-.5c.2 0 .4 0 .6.2l1.7 1.7c.4.4 1.1.2 1.2-.4l.3-2.4c0-.2.2-.4.4-.5l2.1-1.1c.5-.3.5-1 0-1.2l-2.2-1c-.2-.1-.3-.3-.4-.5l-.4-2.4c-.1-.6-.8-.8-1.2-.4l-1.6 1.7c-.2.2-.4.2-.6.2l-2.4-.4c-.6-.1-1 .5-.7 1L27.8 16.8zM62.7 18.7h.2c0-3.6 2.9-6.5 6.5-6.5V12c-3.6 0-6.5-2.9-6.5-6.5h-.2c0 3.6-2.9 6.5-6.5 6.5v.2C59.9 12.2 62.7 15.2 62.7 18.7zM17.6 53.6c1.2-.7 2.7-1.1 3.7-2.1 1.1-1.1 1.4-2.7 1.6-4.2.7-5.2 1.5-10.3 2.2-15.5.1-.9.2-2-.1-2.9-.2-.4-.4-.8-.8-1.1 0 0 0 0 0 0-1-.6-2.2.3-2.4 1.7l-2.5 16.9c-.2 1-.7 2.3-1.7 2.2-1.2-.1-1.3-1.7-1.2-2.8.8-5.6 1.7-11.2 2.5-16.8.2-1.1-.4-2.1-1.3-2.3-.9-.1-1.8.7-1.9 1.8l-2.5 16.8c-.2 1.1-.8 2.5-1.9 2.3-1.1-.2-1.2-1.6-1-2.6l2.5-16.9c.2-1.4-.7-2.6-1.8-2.3 0 0 0 0 0 0-.4.1-.8.5-1.1.8-.6.8-.8 1.8-.9 2.7C8.1 34.6 7.3 39.8 6.5 45c-.2 1.5-.4 3.1.3 4.4.7 1.2 2 2 3 3.1 1.4 1.5 1.9 3.7 1.3 5.6-.2.6-.5 1.2-.9 1.7-.3.3-.8.6-1.1 1-.7.8-.9 1.8-1 2.8C6.7 72.7 5.3 82 3.9 91.2c-.2 1.6-.3 3.6 1.1 4.4.1.1.2.1.3.2C5.8 96 6.3 96 6.8 96.1c.2 0 .4.1.6.1.2 0 .4.1.6.1.5.1.9.1 1.4.1.1 0 .2 0 .4-.1 1.6-.4 2.1-2.3 2.4-3.9 1.4-9.2 2.7-18.5 4.1-27.7.1-1 .3-2.1-.2-3-.2-.4-.5-.8-.8-1.2-.3-.6-.4-1.2-.4-1.9C14.7 56.6 15.8 54.7 17.6 53.6z"/><path d="M82.3,70.1l-0.6-0.8c-3.4-4.6-5.2-10.1-6.5-14.9c-1-3.8-2.1-8.3-2-13c0-1.7,0.2-3.2,0.5-4.7C67.4,30,58.4,25.9,48.4,25.9
		c-8.1,0-15.6,2.7-21.5,7.3l-2.1,14.5c-0.2,1.5-0.5,3.7-2.1,5.3c-1.3,1.3-3,1.7-4.1,2.4c-1.1,0.7-1.9,2-1.9,3.3
		c0,0.4,0.1,0.7,0.2,0.9c0.1,0.1,0.2,0.3,0.3,0.4c0.2,0.2,0.4,0.5,0.6,0.9c0.8,1.5,0.5,3.1,0.4,4.2l-1.6,11
		c5.6,12.1,17.8,20.4,32,20.4c16.3,0,30-11.1,34-26.1C82.4,70.2,82.4,70.2,82.3,70.1z M48.4,86.1c-13.8,0-24.9-11.2-24.9-24.9
		c0-13.8,11.2-24.9,24.9-24.9s24.9,11.2,24.9,24.9C73.4,74.9,62.2,86.1,48.4,86.1z"/><path d="M54.4 50.1c-1.8 0-3.5.7-4.8 1.8-.4.4-.8.8-1.2 1.3-.3-.5-.7-.9-1.2-1.3-1.3-1.1-2.9-1.8-4.8-1.8-4 0-7.2 3.2-7.2 7.2 0 1.8.8 3.6 1.7 5.1 2 3.7 5.1 6.7 8.2 9.4.8.7 1.6 1.4 2.5 1.9 0 0 0 0 .1 0 .4.2.9.2 1.3 0 0 0 .1 0 .1 0 .9-.5 1.7-1.2 2.5-1.9 3.2-2.7 6.2-5.7 8.2-9.4.8-1.5 1.7-3.3 1.7-5.1C61.6 53.4 58.4 50.1 54.4 50.1zM83 32.4c-.2-1-.5-2-1.2-2.7-2.3-2.2-4.3 2.3-5 3.8-1.1 2.5-1.6 5.2-1.6 7.9-.1 4.2.8 8.4 1.9 12.4 1.4 5 3.1 10.1 6.2 14.3.7 1 1.6 1.9 2.1 3.1.1.2.2.4.2.5l5.6-1.2C88.6 57.8 85.8 45.1 83 32.4zM96 92c-1.4-6.5-2.8-13-4.2-19.5l-5.4 1.2c.1.3.1.6.2.9 1.3 6.2 2.6 12.3 3.9 18.5.2.8.3 1.6.8 2.2.3.4.8.8 1.3.9.5.2 1 .2 1.5.1 1-.2 1.9-1.1 2.1-2.1C96.3 93.5 96.1 92.7 96 92z"/></svg>