<svg xmlns="http://www.w3.org/2000/svg" viewBox="0 0 64 64"><path fill="#231f20" d="M57.50884 3.995H55.31151a1.274 1.274 0 00-.44166 1.12019c-.00317-.00217.00348 8.16952 0 8.337a1.30269 1.30269 0 00.44167 1.13094h2.19733a1.30269 1.30269 0 00.44166-1.131v-8.337A1.29261 1.29261 0 0057.50884 3.995zM9.54425 15.91884H31.79774l4.16849-4.17927H9.54425a1.5377 1.5377 0 00-1.52957 1.54028v1.10941A1.53546 1.53546 0 009.54425 15.91884zM39.99469 32.99133V58.4762l2.78979-2.80051v-20.961a1.07725 1.07725 0 012.15426.00005V55.68647L47.72847 58.487V33.52989L43.60311 19.6026z"/><path fill="#231f20" d="M29.97739,7.44183,26.00277,9.5853H38.56215a1.09093,1.09093,0,0,1,.76467,1.84187l-6.3227,6.33352-.09691.097a2.38154,2.38154,0,0,0,3.13449,3.56523L42.429,16.54353a1.12144,1.12144,0,0,1,1.14176-.10768,1.93474,1.93474,0,0,1,.91561-.11847,3.70062,3.70062,0,0,0,3.69454-3.69456,1.07337,1.07337,0,0,1,1.07713-1.07713h3.45754V6.31079H34.43672A9.36045,9.36045,0,0,0,29.97739,7.44183Z"/><path fill="#231f20" d="M37.345,23.13556A4.54164,4.54164,0,0,1,30.31138,18.073L10.3521,18.0731,6.74367,30.24466C5.42317,33.121,6.28351,55.40784,6.054,58.8748A1.129,1.129,0,0,0,7.18533,59.995H37.84042V32.8513a1.17065,1.17065,0,0,1,.04313-.28007l3.33908-12.387Z"/><polygon fill="#231f20" points="41.524 59.995 46.199 59.995 43.851 57.658 41.524 59.995"/></svg>